<svg id="svg4157" xmlns="http://www.w3.org/2000/svg" width="444.61" height="424.87" viewBox="0 0 444.61 424.87"><defs><style>.cls-1,.cls-2,.cls-22,.cls-24,.cls-4{fill:none;}.cls-1,.cls-4{stroke:#d2e4f2;stroke-width:3.6px;}.cls-1,.cls-14,.cls-15,.cls-2,.cls-4{stroke-linecap:round;}.cls-2{stroke:#7cabbf;stroke-width:10px;}.cls-3{fill:#7cabbf;}.cls-15,.cls-16,.cls-18,.cls-33,.cls-34,.cls-35,.cls-36,.cls-37,.cls-38,.cls-4{isolation:isolate;}.cls-16,.cls-5{fill:#5da2d7;stroke:#5da2d7;}.cls-6{fill:#dedede;}.cls-7{fill:#eaeaea;}.cls-14,.cls-15,.cls-18,.cls-20,.cls-8{fill:#fff;}.cls-9{fill:#3899c5;}.cls-10{fill:#58b6da;}.cls-11{fill:#1881ce;}.cls-12{fill:#0271c5;}.cls-13{fill:#797979;}.cls-14,.cls-15{stroke:#3c3c3c;}.cls-14,.cls-15,.cls-20{stroke-width:1.5px;}.cls-17{fill:#ffd214;}.cls-18{opacity:0.5;}.cls-19{fill:#f1f1f1;}.cls-20{stroke:#fff;stroke-miterlimit:3;}.cls-21{fill:#828293;}.cls-23{fill:#666;}.cls-24{stroke:#078431;stroke-miterlimit:10;stroke-width:2px;}.cls-25{font-size:10px;}.cls-25,.cls-27{font-family:SegoeUI, Segoe UI;}.cls-26{letter-spacing:-0.03em;}.cls-27{font-size:11px;}.cls-28{letter-spacing:-0.03em;}.cls-29{letter-spacing:-0.1em;}.cls-30{letter-spacing:-0.03em;}.cls-31{fill:#3b3b3b;}.cls-32{fill:#ba1418;}.cls-33,.cls-34,.cls-35,.cls-36,.cls-37,.cls-38{fill:red;}.cls-33{opacity:0.05;}.cls-34{opacity:0.07;}.cls-35{opacity:0.1;}.cls-36{opacity:0.2;}.cls-37{opacity:0.15;}.cls-38{opacity:0.12;}</style></defs><title>guide-steps</title><circle id="circle5592" class="cls-1" cx="215.41" cy="246.12" r="173.31" transform="translate(-93.11 355.64) rotate(-72)"/><g id="circle5592-2" data-name="circle5592"><path class="cls-2" d="M310.76,215a103.45,103.45,0,0,1-3.1,71.9" transform="translate(-7.89 -19.3)"/><polygon class="cls-3" points="312.57 271.65 288.47 260.05 294.67 277.85 312.57 271.65"/></g><g id="circle5592-3" data-name="circle5592"><path class="cls-2" d="M274.06,328.45a100.87,100.87,0,0,1-28.7,14.6,103.34,103.34,0,0,1-40.6,4.7" transform="translate(-7.89 -19.3)"/><polygon class="cls-3" points="196.87 341.75 200.47 315.35 185.47 326.75 196.87 341.75"/></g><g id="circle5592-4" data-name="circle5592"><path class="cls-2" d="M155.26,330.85a102.32,102.32,0,0,1-22.7-22.8,101,101,0,0,1-17-37.2" transform="translate(-7.89 -19.3)"/><polygon class="cls-3" points="94.87 255.65 121.17 250.95 105.67 240.15 94.87 255.65"/></g><g id="circle5592-5" data-name="circle5592"><path class="cls-2" d="M212.06,145.35a101.13,101.13,0,0,1,31.8,5.1,102.25,102.25,0,0,1,35.6,20.1" transform="translate(-7.89 -19.3)"/><polygon class="cls-3" points="279.47 140.35 260.87 159.55 279.77 159.25 279.47 140.35"/></g><g id="circle5592-6" data-name="circle5592"><path class="cls-2" d="M116.86,216.15a103.21,103.21,0,0,1,14.6-28.6,104.58,104.58,0,0,1,19.5-20.3" transform="translate(-7.89 -19.3)"/><polygon class="cls-3" points="133.97 138.15 149.47 159.85 152.57 141.25 133.97 138.15"/></g><path class="cls-4" d="M-10.44-1.85" transform="translate(-7.89 -19.3)"/><path class="cls-4" d="M-10.44-1.85" transform="translate(-7.89 -19.3)"/><path id="path4809" class="cls-5" d="M196.76,259.05" transform="translate(-7.89 -19.3)"/><g id="g4320"><path id="path9" class="cls-6" d="M215.48,172.29a73.89,73.89,0,1,0,73.89,73.89A73.66,73.66,0,0,0,215.48,172.29Zm0,143.15a69.27,69.27,0,1,1,69.27-69.27A69.1,69.1,0,0,1,215.48,315.44Z" transform="translate(-7.89 -19.3)"/><circle id="circle11" class="cls-7" cx="207.59" cy="226.88" r="69.27"/><polygon id="polygon13" class="cls-6" points="207.59 162.23 195.18 204.94 195.18 204.94 203.55 209.56 207.59 211.58 207.59 208.41 207.59 162.23"/><polygon id="polygon15" class="cls-6" points="211.34 244.19 207.88 242.17 207.59 242.17 207.59 242.46 207.59 245.35 207.59 291.53 219.71 248.81 211.34 244.19"/><polygon id="polygon17" class="cls-8" points="207.59 162.23 219.71 204.94 219.71 204.94 211.34 209.56 207.59 211.58 207.59 208.41 207.59 162.23"/><polygon id="polygon19" class="cls-8" points="203.55 244.19 207.01 242.17 207.59 242.17 207.59 242.46 207.59 245.35 207.59 291.53 195.18 248.81 203.55 244.19"/><polygon id="polygon21" class="cls-6" points="142.94 226.88 185.37 239 185.37 239 189.98 230.63 192.29 226.88 189.12 226.88 142.94 226.88"/><polygon id="polygon23" class="cls-6" points="224.91 222.84 222.89 226.59 222.6 226.88 223.18 226.88 226.06 226.88 272.24 226.88 229.53 214.75 224.91 222.84"/><polygon id="polygon25" class="cls-8" points="142.94 226.88 185.37 214.75 185.37 214.75 189.98 222.84 192.29 226.88 189.12 226.88 142.94 226.88"/><polygon id="polygon27" class="cls-8" points="224.91 230.63 222.89 227.17 222.6 226.88 223.18 226.88 226.06 226.88 272.24 226.88 229.53 239 224.91 230.63"/><polygon id="polygon29" class="cls-6" points="192.29 226.88 192.29 226.88 207.59 226.88 173.25 192.53 173.25 192.53 192.29 226.88"/><polygon id="polygon31" class="cls-8" points="192.29 226.88 192.29 226.88 207.59 226.88 173.25 261.22 173.25 261.22 192.29 226.88"/><polygon id="polygon33" class="cls-6" points="207.59 242.17 207.59 241.88 207.59 226.88 173.25 261.22 173.25 261.22 207.59 242.17"/><polygon id="polygon35" class="cls-8" points="207.59 242.17 207.59 241.88 207.59 226.88 241.65 261.22 241.65 261.22 207.59 242.17"/><polygon id="polygon37" class="cls-6" points="222.6 226.88 222.6 226.88 207.59 226.88 241.65 261.22 241.65 261.22 222.6 226.88"/><polygon id="polygon39" class="cls-8" points="222.6 226.88 222.6 226.88 207.59 226.88 241.65 192.53 241.65 192.53 222.6 226.88"/><polygon id="polygon41" class="cls-6" points="207.59 211.58 207.59 211.87 207.59 226.88 241.65 192.53 241.65 192.53 207.59 211.58"/><polygon id="polygon43" class="cls-8" points="207.59 211.58 207.59 211.87 207.59 226.88 173.25 192.53 173.25 192.53 207.59 211.58"/><polygon id="polygon45" class="cls-9" points="161.99 272.77 216.83 236.11 253.48 181.28 198.35 217.64 198.35 217.64 161.99 272.77"/><polygon id="polygon47" class="cls-10" points="161.99 272.77 216.83 236.11 207.59 226.88 161.99 272.77"/><polygon id="polygon49" class="cls-11" points="253.48 181.28 198.35 217.64 207.59 226.88 253.48 181.28"/><polygon id="polygon51" class="cls-12" points="253.48 181.28 216.83 236.11 207.3 226.59 253.48 181.28"/><circle id="circle53" class="cls-13" cx="207.59" cy="226.88" r="4.62"/></g><circle id="circle5309" class="cls-14" cx="311.26" cy="214.96" r="35.1" transform="translate(-59.08 87.4) rotate(-18)"/><path class="cls-15" d="M-10.44-1.85" transform="translate(-7.89 -19.3)"/><path id="path5173" class="cls-5" d="M58.46,190.65" transform="translate(-7.89 -19.3)"/><path class="cls-16" d="M-10.44-1.85" transform="translate(-7.89 -19.3)"/><path class="cls-16" d="M-10.44-1.85" transform="translate(-7.89 -19.3)"/><path id="path5185" class="cls-5" d="M208.06,167.35" transform="translate(-7.89 -19.3)"/><circle id="path4715" class="cls-14" cx="207.47" cy="126.05" r="45.4"/><circle id="circle4731" class="cls-14" cx="119.49" cy="215" r="35.1" transform="translate(-129.8 242.9) rotate(-72)"/><circle id="circle4743" class="cls-14" cx="158.45" cy="327.82" r="35.1" transform="translate(-207.79 244.02) rotate(-54)"/><circle id="circle4749" class="cls-14" cx="272.68" cy="326.16" r="35.1" transform="translate(-147.53 203.28) rotate(-36)"/><g id="g5172"><path id="svg_1-0" data-name="svg 1-0" class="cls-17" d="M315.76,370.14a16,16,0,0,0-16,16c0,12.8,9.6,12.8,9.6,22.4h12.8c0-9.6,9.6-9.6,9.6-22.4A16,16,0,0,0,315.76,370.14Z" transform="translate(-7.89 -19.3)"/><polygon id="svg_2-3" data-name="svg 2-3" class="cls-7" points="314.27 398.84 301.47 398.84 301.47 398.84 305.07 402.04 311.07 402.04 314.27 398.84"/><rect id="svg_3-7" data-name="svg 3-7" class="cls-7" x="301.47" y="395.64" width="12.8" height="3.2"/><polygon id="svg_4-1" data-name="svg 4-1" class="cls-6" points="314.27 392.44 301.47 395.64 301.47 395.64 301.47 398.84 314.27 395.64 314.27 392.44"/><rect id="svg_5-5" data-name="svg 5-5" class="cls-6" x="301.47" y="389.24" width="12.8" height="3.2"/><polygon id="svg_6-37" data-name="svg 6-37" class="cls-7" points="314.27 389.24 301.47 392.44 301.47 392.44 301.47 395.64 314.27 392.44 314.27 389.24"/><ellipse id="svg_7-15" data-name="svg 7-15" class="cls-18" cx="307.87" cy="355.64" rx="6.4" ry="3.2"/></g><path class="cls-12" d="M215.36,59.75c-6.6-3.3-23.2-5.8-26.5-5.8v37.3c3.3,0,19.9,2.5,26.5,5.8,6.6-3.3,23.2-5.8,26.5-5.8V54C238.56,54,222,56.45,215.36,59.75Z" transform="translate(-7.89 -19.3)"/><path class="cls-6" d="M215.36,57.25c-6.6-3.3-20.7-5.8-24-5.8v37.3c3.3,0,17.4,2.5,24,5.8h0c6.6-3.3,20.7-5.8,24-5.8V51.45C236.06,51.45,222,54,215.36,57.25Z" transform="translate(-7.89 -19.3)"/><path class="cls-19" d="M215.36,54.75v37.3c6.6-3.3,18.2-5.8,21.6-5.8V49C233.56,49,222,51.45,215.36,54.75Z" transform="translate(-7.89 -19.3)"/><path class="cls-7" d="M193.76,49v37.3c3.3,0,14.9,2.5,21.6,5.8V54.75C208.76,51.45,197.16,49,193.76,49Z" transform="translate(-7.89 -19.3)"/><path class="cls-13" d="M212.06,60.55a70,70,0,0,0-14.9-4.1v-1.7a70,70,0,0,1,14.9,4.1Z" transform="translate(-7.89 -19.3)"/><path class="cls-13" d="M212.06,65.55a70,70,0,0,0-14.9-4.1v-1.7a70,70,0,0,1,14.9,4.1Z" transform="translate(-7.89 -19.3)"/><path class="cls-13" d="M212.06,70.45a70,70,0,0,0-14.9-4.1v-1.7a70,70,0,0,1,14.9,4.1Z" transform="translate(-7.89 -19.3)"/><path class="cls-13" d="M212.06,75.45a70,70,0,0,0-14.9-4.1v-1.7a70,70,0,0,1,14.9,4.1Z" transform="translate(-7.89 -19.3)"/><path class="cls-13" d="M212.06,80.45a70,70,0,0,0-14.9-4.1v-1.7a70,70,0,0,1,14.9,4.1Z" transform="translate(-7.89 -19.3)"/><path class="cls-13" d="M212.06,85.45a70,70,0,0,0-14.9-4.1v-1.7a70,70,0,0,1,14.9,4.1Z" transform="translate(-7.89 -19.3)"/><path class="cls-13" d="M218.66,60.55a70,70,0,0,1,14.9-4.1v-1.7a70,70,0,0,0-14.9,4.1Z" transform="translate(-7.89 -19.3)"/><path class="cls-13" d="M218.66,65.55a70,70,0,0,1,14.9-4.1v-1.7a70,70,0,0,0-14.9,4.1Z" transform="translate(-7.89 -19.3)"/><path class="cls-13" d="M218.66,70.45a70,70,0,0,1,14.9-4.1v-1.7a70,70,0,0,0-14.9,4.1Z" transform="translate(-7.89 -19.3)"/><path class="cls-13" d="M218.66,75.45a70,70,0,0,1,14.9-4.1v-1.7a70,70,0,0,0-14.9,4.1Z" transform="translate(-7.89 -19.3)"/><path class="cls-13" d="M218.66,80.45a70,70,0,0,1,14.9-4.1v-1.7a70,70,0,0,0-14.9,4.1Z" transform="translate(-7.89 -19.3)"/><path class="cls-13" d="M218.66,85.45a70,70,0,0,1,14.9-4.1v-1.7a70,70,0,0,0-14.9,4.1Z" transform="translate(-7.89 -19.3)"/><path class="cls-1" d="M215.36,350.55" transform="translate(-7.89 -19.3)"/><g id="shape62-3"><path id="path3361" class="cls-20" d="M116.16,367.45H91v45.9h36.7v-34.4l-11.5-11.5Z" transform="translate(-7.89 -19.3)"/></g><path id="path3366" class="cls-8" d="M116.16,367.45H91v45.9h36.7v-34.4l-11.5-11.5Z" transform="translate(-7.89 -19.3)"/><path id="path3371" class="cls-21" d="M116.16,367.45H91v45.9h36.7v-34.4l-11.5-11.5Zm9.2,43.5h-32v-41.2h21.8V380h10.3v30.9Z" transform="translate(-7.89 -19.3)"/><g id="shape69-17"><rect id="rect3396" class="cls-22" x="83.07" y="348.15" width="36.7" height="45.8"/></g><g id="rect3406"><rect class="cls-8" x="90.27" y="369.25" width="4.1" height="4.2"/><path class="cls-23" d="M98.16,388.55c1.3-.1,2.6-.2,4.1-.2a.22.22,0,0,1,.2.2h0v4.1a.27.27,0,0,1-.3.3h-4a.22.22,0,0,1-.2-.2,17,17,0,0,1,.1-2.2Zm0,0,.1,2.2c0,.7.1,1.4.1,2l-.2-.2h4l-.3.3v-4.1l.2.2C101,388.75,99.56,388.65,98.16,388.55Z" transform="translate(-7.89 -19.3)"/></g><path class="cls-23" d="M104.76,390.15l19,.9-19,.9a.9.9,0,1,1,0-1.8Z" transform="translate(-7.89 -19.3)"/><path class="cls-24" d="M96.26,388.85s2.2,1.2,3.6,2.2c2.6-8.6,5.7-9.1,5.7-9.1" transform="translate(-7.89 -19.3)"/><g id="rect3406-2" data-name="rect3406"><rect class="cls-8" x="90.07" y="375.75" width="4.1" height="4.2"/><path class="cls-23" d="M98,395c1.3-.1,2.6-.2,4.1-.2a.22.22,0,0,1,.2.2h0v4.1a.27.27,0,0,1-.3.3H98a.22.22,0,0,1-.2-.2,17,17,0,0,1,.1-2.2Zm0,0,.1,2.2c0,.7.1,1.4.1,2L98,399h4l-.3.3v-4.1l.2.2C100.66,395.25,99.36,395.15,98,395Z" transform="translate(-7.89 -19.3)"/></g><path class="cls-23" d="M104.46,396.75l19,.9-19,.9a1,1,0,0,1-1-.9.92.92,0,0,1,1-.9Z" transform="translate(-7.89 -19.3)"/><g id="rect3406-3" data-name="rect3406"><rect class="cls-8" x="90.07" y="382.65" width="4.1" height="4.2"/><path class="cls-23" d="M98,401.95c1.3-.1,2.6-.2,4.1-.2a.22.22,0,0,1,.2.2h0V406a.27.27,0,0,1-.3.3H98a.22.22,0,0,1-.2-.2,17,17,0,0,1,.1-2.2Zm0,0,.1,2.2c0,.7.1,1.4.1,2l-.2-.2h4l-.3.3v-4.1l.2.2A16.11,16.11,0,0,0,98,401.95Z" transform="translate(-7.89 -19.3)"/></g><path class="cls-23" d="M104.46,403.55l19,.9-19,.9a1,1,0,0,1-1-.9.92.92,0,0,1,1-.9Z" transform="translate(-7.89 -19.3)"/><text class="cls-25" transform="translate(185.99 8.5)"><tspan class="cls-26">R</tspan><tspan x="5.69" y="0">eference</tspan><tspan x="-7.18" y="12">Architectures</tspan></text><text class="cls-27" transform="translate(177.98 121.87)">Architecture<tspan class="cls-28" x="15.68" y="13.2">S</tspan><tspan x="21.17" y="13.2">tyles</tspan></text><text class="cls-25" transform="translate(278.22 191.85)"><tspan class="cls-29">T</tspan><tspan x="4.26" y="0">echnology</tspan><tspan x="8.04" y="12">Choices</tspan></text><text class="cls-25" transform="translate(96.37 191.89)">Design<tspan class="cls-30" x="-2.64" y="12">P</tspan><tspan x="2.62" y="12">atterns</tspan></text><text class="cls-25" transform="translate(134.88 304.72)">Quality<tspan x="2.84" y="12">Pillars</tspan></text><text class="cls-25" transform="translate(249.57 303.06)">Design<tspan x="-5.76" y="12">Principles</tspan></text><g id="g4442"><polygon id="svg_1" data-name="svg 1" class="cls-31" points="373.27 156.56 429.58 156.56 429.58 156.56 425.73 161.84 376.46 161.84 373.27 156.56"/><path id="svg_2" data-name="svg 2" class="cls-32" d="M381.17,181.14h56.3v17.59a1.74,1.74,0,0,1-1.76,1.76H382.92a1.74,1.74,0,0,1-1.76-1.76Z" transform="translate(-7.89 -19.3)"/><path id="svg_3" data-name="svg 3" class="cls-32" d="M382.92,167.06h52.78a1.74,1.74,0,0,1,1.76,1.76v7h-56.3v-7A1.74,1.74,0,0,1,382.92,167.06Z" transform="translate(-7.89 -19.3)"/><rect id="svg_4" data-name="svg 4" class="cls-6" x="397.91" y="161.84" width="7.04" height="3.52"/><rect id="svg_5" data-name="svg 5" class="cls-31" x="399.67" y="161.84" width="3.52" height="1.76"/><rect id="svg_6" data-name="svg 6" class="cls-6" x="397.91" y="153.04" width="7.04" height="3.52"/><rect id="svg_7" data-name="svg 7" class="cls-31" x="399.67" y="154.8" width="3.52" height="1.76"/><path id="svg_8" data-name="svg 8" class="cls-31" d="M398.76,164.42v2.64h3.52v-.88h14.08v.88h3.52v-2.64a1.74,1.74,0,0,0-1.76-1.76H400.52A1.74,1.74,0,0,0,398.76,164.42Z" transform="translate(-7.89 -19.3)"/></g><rect class="cls-8" x="363.61" y="189.67" width="81" height="29.46"/><text class="cls-25" transform="translate(371.33 199.25)">Compute and<tspan class="cls-28" x="-5.73" y="12">S</tspan><tspan x="-0.74" y="12">torage Options</tspan></text><g id="svg_1-7" data-name="svg 1-7"><g id="Layer_1" data-name="Layer 1"><polygon id="svg_2-8" data-name="svg 2-8" class="cls-8" points="56.44 148.64 42.04 144.04 42.04 144.04 16.44 135.84 9.84 160.44 5.24 177.44 46.84 187.04 56.44 166.24 56.44 148.64"/><g id="svg_3-3" data-name="svg 3-3"><polygon id="svg_4-9" data-name="svg 4-9" class="cls-33" points="19.64 156.64 16.44 135.84 16.44 135.84 5.24 177.44 19.64 156.64"/><polygon id="svg_5-0" data-name="svg 5-0" class="cls-34" points="19.64 156.64 48.44 159.84 48.44 159.84 16.44 135.84 19.64 156.64"/><polygon id="svg_6-3" data-name="svg 6-3" class="cls-35" points="48.44 159.84 19.64 156.64 19.64 156.64 5.24 177.44 48.44 159.84"/><polygon id="svg_7-1" data-name="svg 7-1" class="cls-33" points="48.44 159.84 42.04 144.04 42.04 144.04 16.44 135.84 48.44 159.84"/><polygon id="svg_8-7" data-name="svg 8-7" class="cls-34" points="48.44 159.84 56.44 148.64 56.44 148.64 42.04 144.04 48.44 159.84"/><polygon id="svg_9" data-name="svg 9" class="cls-36" points="34.04 179.04 5.24 177.44 5.24 177.44 46.84 187.04 34.04 179.04"/><polygon id="svg_10" data-name="svg 10" class="cls-37" points="56.44 148.64 48.44 159.84 48.44 159.84 56.44 166.24 56.44 148.64"/><polygon id="svg_11" data-name="svg 11" class="cls-33" points="34.04 179.04 48.44 159.84 48.44 159.84 5.24 177.44 34.04 179.04"/><polygon id="svg_12" data-name="svg 12" class="cls-34" points="48.44 159.84 46.84 187.04 46.84 187.04 56.44 166.24 48.44 159.84"/><polygon id="svg_13" data-name="svg 13" class="cls-38" points="48.44 159.84 34.04 179.04 34.04 179.04 46.84 187.04 48.44 159.84"/></g><g id="svg_14" data-name="svg 14"><polygon id="svg_15" data-name="svg 15" class="cls-36" points="56.44 148.64 42.04 144.04 16.44 135.84 31.84 147.54 56.44 148.64"/><polygon id="svg_16" data-name="svg 16" class="cls-33" points="22.84 163.04 31.84 147.54 31.84 147.54 16.44 135.84 22.84 163.04"/><polygon id="svg_17" data-name="svg 17" class="cls-38" points="31.84 147.54 22.84 163.04 41.64 155.04 56.44 148.64 31.84 147.54"/><polygon id="svg_18" data-name="svg 18" class="cls-37" points="52.74 163.44 46.84 187.04 56.44 166.24 56.44 148.64 52.74 163.44"/><polygon id="svg_19" data-name="svg 19" class="cls-36" points="24.64 178.64 5.24 177.44 5.24 177.44 46.84 187.04 24.64 178.64"/><polygon id="svg_20" data-name="svg 20" class="cls-34" points="24.34 178.54 23.54 170.24 22.84 163.04 5.24 177.44 24.64 178.64 24.34 178.54"/><polygon id="svg_21" data-name="svg 21" class="cls-34" points="56.44 148.64 41.64 155.04 41.64 155.04 22.84 163.04 28.04 168.34 36.04 176.34 46.84 187.04 52.74 163.44 56.44 148.64"/><polygon id="svg_22" data-name="svg 22" class="cls-35" points="46.84 187.04 36.04 176.34 36.04 176.34 28.04 168.34 22.84 163.04 23.54 170.24 24.34 178.54 24.64 178.64 46.84 187.04"/><polygon id="svg_23" data-name="svg 23" class="cls-33" points="5.24 177.44 22.84 163.04 22.84 163.04 9.84 160.44 5.24 177.44"/><polygon id="svg_24" data-name="svg 24" class="cls-35" points="9.84 160.34 22.84 163.04 16.44 135.84 9.84 160.44 22.84 163.04 9.84 160.34"/></g></g></g><rect class="cls-8" y="192.04" width="65.33" height="30.72"/><text class="cls-25" transform="translate(3.23 204.33)">Cloud Design<tspan class="cls-30" x="11.74" y="12">P</tspan><tspan x="17" y="12">atterns</tspan></text><text class="cls-25" transform="translate(69.68 408.76)">Design <tspan class="cls-26" x="33.19" y="0">R</tspan><tspan x="38.88" y="0">eview</tspan><tspan x="10.2" y="12">Checklists</tspan></text><text class="cls-25" transform="translate(277.86 416.23)">Best Practices</text></svg>