<?xml version="1.0" encoding="utf-8"?>
<!-- Generator: Adobe Illustrator 21.1.0, SVG Export Plug-In . SVG Version: 6.00 Build 0)  -->
<svg version="1.1"
	 id="svg4157" inkscape:version="0.91 r13725" sodipodi:docname="guide-steps.svg" xmlns:cc="http://creativecommons.org/ns#" xmlns:dc="http://purl.org/dc/elements/1.1/" xmlns:inkscape="http://www.inkscape.org/namespaces/inkscape" xmlns:rdf="http://www.w3.org/1999/02/22-rdf-syntax-ns#" xmlns:sodipodi="http://sodipodi.sourceforge.net/DTD/sodipodi-0.dtd" xmlns:svg="http://www.w3.org/2000/svg"
	 xmlns="http://www.w3.org/2000/svg" xmlns:xlink="http://www.w3.org/1999/xlink" x="0px" y="0px" viewBox="0 0 456 465"
	 style="enable-background:new 0 0 456 465;" xml:space="preserve">
<style type="text/css">
	.st0{fill:none;stroke:#7CABBF;stroke-width:10;stroke-linecap:round;}
	.st1{fill:#7CABBF;}
	.st2{fill:none;stroke:#D2E4F2;stroke-width:3.6;stroke-linecap:round;}
	.st3{fill:none;}
	.st4{fill:#5DA2D7;stroke:#5DA2D7;}
	.st5{fill:#DEDEDE;}
	.st6{fill:#EAEAEA;}
	.st7{fill:#FFFFFF;}
	.st8{fill:#3899C5;}
	.st9{fill:#58B6DA;}
	.st10{fill:#1881CE;}
	.st11{fill:#0271C5;}
	.st12{fill:#797979;}
	.st13{fill:#FFFFFF;stroke:#3C3C3C;stroke-width:1.5;stroke-linecap:round;}
	.st14{font-family:'Arial-BoldMT';}
	.st15{font-size:10px;}
	.st16{fill:#3B3B3B;}
	.st17{fill:#BA1418;}
	.st18{opacity:5.000000e-02;fill:#FF0000;enable-background:new    ;}
	.st19{opacity:7.000002e-02;fill:#FF0000;enable-background:new    ;}
	.st20{opacity:0.1;fill:#FF0000;enable-background:new    ;}
	.st21{opacity:0.2;fill:#FF0000;enable-background:new    ;}
	.st22{opacity:0.15;fill:#FF0000;enable-background:new    ;}
	.st23{opacity:0.12;fill:#FF0000;enable-background:new    ;}
	.st24{fill:#FFD214;}
	.st25{opacity:0.5;fill:#FFFFFF;enable-background:new    ;}
	.st26{font-family:'SegoeUI';}
	.st27{font-size:9px;}
	.st28{font-size:8.6198px;}
	.st29{fill:#F1F1F1;}
	.st30{enable-background:new    ;}
	.st31{fill:#FFFFFF;stroke:#FFFFFF;stroke-width:1.5;stroke-miterlimit:3;}
	.st32{fill:#828293;}
	.st33{fill:#666666;}
	.st34{fill:none;stroke:#078431;stroke-width:2;stroke-miterlimit:10;}
</style>
<g>
	<g id="circle5592_1_">
		<g>
			<path class="st0" d="M321.2,216.8c3.2,10,5,20.7,5,31.8c0,14.2-2.9,27.7-8.1,40.1"/>
			<g>
				<polygon class="st1" points="330.9,292.8 306.8,281.2 313,299 				"/>
			</g>
		</g>
	</g>
	<g id="circle5592_4_">
		<g>
			<path class="st0" d="M284.5,330.3c-8.5,6.2-18.1,11.2-28.7,14.6c-13.5,4.4-27.3,5.8-40.6,4.7"/>
			<g>
				<polygon class="st1" points="215.2,362.9 218.8,336.5 203.8,347.9 				"/>
			</g>
		</g>
	</g>
	<g id="circle5592_6_">
		<g>
			<path class="st0" d="M165.7,332.7c-8.5-6.2-16.2-13.8-22.7-22.8c-8.4-11.5-14-24.1-17-37.2"/>
			<g>
				<polygon class="st1" points="113.2,276.8 139.5,272.1 124,261.3 				"/>
			</g>
		</g>
	</g>
	<g id="circle5592_2_">
		<g>
			<path class="st0" d="M222.5,147.2c10.5,0,21.2,1.6,31.8,5.1c13.5,4.4,25.5,11.3,35.6,20.1"/>
			<g>
				<polygon class="st1" points="297.8,161.5 279.2,180.7 298.1,180.4 				"/>
			</g>
		</g>
	</g>
	<g id="circle5592_8_">
		<g>
			<path class="st0" d="M127.3,218c3.3-10,8.1-19.7,14.6-28.6c5.7-7.8,12.3-14.6,19.5-20.3"/>
			<g>
				<polygon class="st1" points="152.3,159.3 167.8,181 170.9,162.4 				"/>
			</g>
		</g>
	</g>
</g>
<sodipodi:namedview  bordercolor="#666666" borderopacity="1.0" fit-margin-bottom="0" fit-margin-left="0" fit-margin-right="0" fit-margin-top="0" id="base" inkscape:current-layer="layer1" inkscape:cx="190.78389" inkscape:cy="237.66062" inkscape:document-units="px" inkscape:pageopacity="0.0" inkscape:pageshadow="2" inkscape:window-height="801" inkscape:window-maximized="1" inkscape:window-width="1536" inkscape:window-x="-8" inkscape:window-y="-8" inkscape:zoom="0.98994949" pagecolor="#ffffff" showgrid="false">
	<inkscape:grid  id="grid5245" originx="-39.921327" originy="-33.350011" type="xygrid"></inkscape:grid>
</sodipodi:namedview>
<ellipse id="circle5592" transform="matrix(0.309 -0.9511 0.9511 0.309 -79.7938 386.0886)" class="st2" cx="225.8" cy="248" rx="173.3" ry="173.3"/>
<path class="st3" d=""/>
<path class="st3" d=""/>
<path id="path4809" inkscape:connector-curvature="0" sodipodi:nodetypes="cc" class="st4" d="M207.2,260.9"/>
<g id="g4320" transform="matrix(2.8861607,0,0,2.8861607,205.14286,337.49479)">
	<path id="path9" inkscape:connector-curvature="0" class="st5" d="M7.2-56.6C-7-56.6-18.4-45.2-18.4-31S-7-5.4,7.2-5.4
		S32.8-16.9,32.8-31S21.3-56.6,7.2-56.6z M7.2-7c-13.3,0-24-10.7-24-24s10.7-24,24-24s24,10.7,24,24S20.4-7,7.2-7z"/>
	<circle id="circle11" class="st6" cx="7.2" cy="-31" r="24"/>
	<polygon id="polygon13" class="st5" points="7.2,-53.4 2.9,-38.6 2.9,-38.6 5.8,-37 7.2,-36.3 7.2,-37.4 	"/>
	<polygon id="polygon15" class="st5" points="8.5,-25 7.3,-25.7 7.2,-25.7 7.2,-25.6 7.2,-24.6 7.2,-8.6 11.4,-23.4 	"/>
	<polygon id="polygon17" class="st7" points="7.2,-53.4 11.4,-38.6 11.4,-38.6 8.5,-37 7.2,-36.3 7.2,-37.4 	"/>
	<polygon id="polygon19" class="st7" points="5.8,-25 7,-25.7 7.2,-25.7 7.2,-25.6 7.2,-24.6 7.2,-8.6 2.9,-23.4 	"/>
	<polygon id="polygon21" class="st5" points="-15.2,-31 -0.5,-26.8 -0.5,-26.8 1.1,-29.7 1.9,-31 0.8,-31 	"/>
	<polygon id="polygon23" class="st5" points="13.2,-32.4 12.5,-31.1 12.4,-31 12.6,-31 13.6,-31 29.6,-31 14.8,-35.2 	"/>
	<polygon id="polygon25" class="st7" points="-15.2,-31 -0.5,-35.2 -0.5,-35.2 1.1,-32.4 1.9,-31 0.8,-31 	"/>
	<polygon id="polygon27" class="st7" points="13.2,-29.7 12.5,-30.9 12.4,-31 12.6,-31 13.6,-31 29.6,-31 14.8,-26.8 	"/>
	<polygon id="polygon29" class="st5" points="1.9,-31 1.9,-31 7.2,-31 -4.7,-42.9 -4.7,-42.9 	"/>
	<polygon id="polygon31" class="st7" points="1.9,-31 1.9,-31 7.2,-31 -4.7,-19.1 -4.7,-19.1 	"/>
	<polygon id="polygon33" class="st5" points="7.2,-25.7 7.2,-25.8 7.2,-31 -4.7,-19.1 -4.7,-19.1 	"/>
	<polygon id="polygon35" class="st7" points="7.2,-25.7 7.2,-25.8 7.2,-31 19,-19.1 19,-19.1 	"/>
	<polygon id="polygon37" class="st5" points="12.4,-31 12.4,-31 7.2,-31 19,-19.1 19,-19.1 	"/>
	<polygon id="polygon39" class="st7" points="12.4,-31 12.4,-31 7.2,-31 19,-42.9 19,-42.9 	"/>
	<polygon id="polygon41" class="st5" points="7.2,-36.3 7.2,-36.2 7.2,-31 19,-42.9 19,-42.9 	"/>
	<polygon id="polygon43" class="st7" points="7.2,-36.3 7.2,-36.2 7.2,-31 -4.7,-42.9 -4.7,-42.9 	"/>
	<polygon id="polygon45" class="st8" points="-8.6,-15.1 10.4,-27.8 23.1,-46.8 4,-34.2 4,-34.2 	"/>
	<polygon id="polygon47" class="st9" points="-8.6,-15.1 10.4,-27.8 7.2,-31 	"/>
	<polygon id="polygon49" class="st10" points="23.1,-46.8 4,-34.2 7.2,-31 	"/>
	<polygon id="polygon51" class="st11" points="23.1,-46.8 10.4,-27.8 7.1,-31.1 	"/>
	<circle id="circle53" class="st12" cx="7.2" cy="-31" r="1.6"/>
</g>
<ellipse id="circle5309" transform="matrix(0.9511 -0.309 0.309 0.9511 -51.255 110.0113)" class="st13" cx="321.7" cy="216.8" rx="35.1" ry="35.1"/>
<path class="st3" d=""/>
<path id="path5173" inkscape:connector-curvature="0" sodipodi:nodetypes="cc" class="st4" d="M68.9,192.5"/>
<path class="st3" d=""/>
<path class="st3" d=""/>
<path id="path5185" inkscape:connector-curvature="0" sodipodi:nodetypes="cc" class="st4" d="M218.5,169.2"/>
<circle id="path4715" class="st13" cx="225.8" cy="147.2" r="45.4"/>
<text transform="matrix(1 0 0 1 196.5151 144.0547)" class="st14 st15">Architecture</text>
<text transform="matrix(1 0 0 1 211.2368 156.5547)" class="st14 st15">Styles</text>
<ellipse id="circle4731" transform="matrix(0.309 -0.9511 0.9511 0.309 -116.4085 273.4)" class="st13" cx="129.9" cy="216.8" rx="35.1" ry="35.1"/>
<ellipse id="circle4743" transform="matrix(0.5878 -0.809 0.809 0.5878 -197.1129 272.5135)" class="st13" cx="168.9" cy="329.7" rx="35.1" ry="35.1"/>
<ellipse id="circle4749" transform="matrix(0.809 -0.5878 0.5878 0.809 -138.7015 229.0618)" class="st13" cx="283.1" cy="328" rx="35.1" ry="35.1"/>
<text transform="matrix(1 0 0 1 293.9126 214.7256)" class="st14 st15">Technology</text>
<text transform="matrix(1 0 0 1 302.1475 227.2256)" class="st14 st15">Choices</text>
<text transform="matrix(1 0 0 1 266.311 324.9863)" class="st14 st15">Design</text>
<text transform="matrix(1 0 0 1 259.082 337.4863)" class="st14 st15">Principles</text>
<text transform="matrix(1 0 0 1 151.752 327.5986)" class="st14 st15">Quality</text>
<text transform="matrix(1 0 0 1 153.6904 340.0986)" class="st14 st15">Pillars</text>
<text transform="matrix(1 0 0 1 113.0684 214.7002)" class="st14 st15">Design</text>
<text transform="matrix(1 0 0 1 109.731 227.2002)" class="st14 st15">Patterns</text>
<g id="g4442" transform="matrix(1.0996678,0,0,1.0996678,475.91503,328.79741)">
	<title  id="title4444">Layer 1</title>
	<polygon id="svg_1" class="st16" points="-97.6,-126.6 -46.4,-126.6 -46.4,-126.6 -49.9,-121.8 -94.7,-121.8 	"/>
	<path id="svg_2" inkscape:connector-curvature="0" class="st17" d="M-97.6-121.8h51.2v16c0,0.9-0.7,1.6-1.6,1.6h-48
		c-0.9,0-1.6-0.7-1.6-1.6V-121.8z"/>
	<path id="svg_3" inkscape:connector-curvature="0" class="st17" d="M-96-134.6h48c0.9,0,1.6,0.7,1.6,1.6v6.4h-51.2v-6.4
		C-97.6-133.9-96.9-134.6-96-134.6z"/>
	<rect id="svg_4" x="-75.2" y="-121.8" class="st5" width="6.4" height="3.2"/>
	<rect id="svg_5" x="-73.6" y="-121.8" class="st16" width="3.2" height="1.6"/>
	<rect id="svg_6" x="-75.2" y="-129.8" class="st5" width="6.4" height="3.2"/>
	<rect id="svg_7" x="-73.6" y="-128.2" class="st16" width="3.2" height="1.6"/>
	<path id="svg_8" inkscape:connector-curvature="0" class="st16" d="M-81.6-137v2.4h3.2v-0.8h12.8v0.8h3.2v-2.4
		c0-0.9-0.7-1.6-1.6-1.6h-16C-80.9-138.6-81.6-137.9-81.6-137z"/>
</g>
<g id="svg_1-7" transform="translate(60.170425,327.84392)">
	<g id="Layer_1">
		<polygon id="svg_2-8" class="st7" points="27,-148.7 12.6,-153.3 12.6,-153.3 -13,-161.5 -19.6,-136.9 -24.2,-119.9 17.4,-110.3 
			27,-131.1 		"/>
		<g id="svg_3-3">
			<polygon id="svg_4-9" class="st18" points="-9.8,-140.7 -13,-161.5 -13,-161.5 -24.2,-119.9 			"/>
			<polygon id="svg_5-0" class="st19" points="-9.8,-140.7 19,-137.5 19,-137.5 -13,-161.5 			"/>
			<polygon id="svg_6-3" class="st20" points="19,-137.5 -9.8,-140.7 -9.8,-140.7 -24.2,-119.9 			"/>
			<polygon id="svg_7-1" class="st18" points="19,-137.5 12.6,-153.3 12.6,-153.3 -13,-161.5 			"/>
			<polygon id="svg_8-7" class="st19" points="19,-137.5 27,-148.7 27,-148.7 12.6,-153.3 			"/>
			<polygon id="svg_9" class="st21" points="4.6,-118.3 -24.2,-119.9 -24.2,-119.9 17.4,-110.3 			"/>
			<polygon id="svg_10" class="st22" points="27,-148.7 19,-137.5 19,-137.5 27,-131.1 			"/>
			<polygon id="svg_11" class="st18" points="4.6,-118.3 19,-137.5 19,-137.5 -24.2,-119.9 			"/>
			<polygon id="svg_12" class="st19" points="19,-137.5 17.4,-110.3 17.4,-110.3 27,-131.1 			"/>
			<polygon id="svg_13" class="st23" points="19,-137.5 4.6,-118.3 4.6,-118.3 17.4,-110.3 			"/>
		</g>
		<g id="svg_14">
			<polygon id="svg_15" class="st21" points="27,-148.7 12.6,-153.3 -13,-161.5 2.4,-149.8 			"/>
			<polygon id="svg_16" class="st18" points="-6.6,-134.3 2.4,-149.8 2.4,-149.8 -13,-161.5 			"/>
			<polygon id="svg_17" class="st23" points="2.4,-149.8 -6.6,-134.3 12.2,-142.3 27,-148.7 			"/>
			<polygon id="svg_18" class="st22" points="23.3,-133.9 17.4,-110.3 27,-131.1 27,-148.7 			"/>
			<polygon id="svg_19" class="st21" points="-4.8,-118.7 -24.2,-119.9 -24.2,-119.9 17.4,-110.3 			"/>
			<polygon id="svg_20" class="st19" points="-5.1,-118.8 -5.9,-127.1 -6.6,-134.3 -24.2,-119.9 -4.8,-118.7 			"/>
			<polygon id="svg_21" class="st19" points="27,-148.7 12.2,-142.3 12.2,-142.3 -6.6,-134.3 -1.4,-129 6.6,-121 17.4,-110.3 
				23.3,-133.9 			"/>
			<polygon id="svg_22" class="st20" points="17.4,-110.3 6.6,-121 6.6,-121 -1.4,-129 -6.6,-134.3 -5.9,-127.1 -5.1,-118.8 
				-4.8,-118.7 			"/>
			<polygon id="svg_23" class="st18" points="-24.2,-119.9 -6.6,-134.3 -6.6,-134.3 -19.6,-136.9 			"/>
			<polygon id="svg_24" class="st20" points="-19.6,-137 -6.6,-134.3 -13,-161.5 -19.6,-136.9 -6.6,-134.3 			"/>
		</g>
	</g>
</g>
<g id="g5172" transform="translate(385.82814,567.7835)">
	<title  id="title5174">Layer 1</title>
	<path id="svg_1-0" inkscape:connector-curvature="0" class="st24" d="M-54.8-209.5c-8.8,0-16,7.2-16,16c0,12.8,9.6,12.8,9.6,22.4
		h12.8c0-9.6,9.6-9.6,9.6-22.4C-38.8-202.3-45.9-209.5-54.8-209.5z"/>
	<polygon id="svg_2-3" class="st6" points="-48.4,-161.5 -61.2,-161.5 -61.2,-161.5 -57.6,-158.3 -51.6,-158.3 	"/>
	<rect id="svg_3-7" x="-61.2" y="-164.7" class="st6" width="12.8" height="3.2"/>
	<polygon id="svg_4-1" class="st5" points="-48.4,-167.9 -61.2,-164.7 -61.2,-164.7 -61.2,-161.5 -48.4,-164.7 	"/>
	<rect id="svg_5-5" x="-61.2" y="-171.1" class="st5" width="12.8" height="3.2"/>
	<polygon id="svg_6-37" class="st6" points="-48.4,-171.1 -61.2,-167.9 -61.2,-167.9 -61.2,-164.7 -48.4,-167.9 	"/>
	<ellipse id="svg_7-15" class="st25" cx="-54.8" cy="-204.7" rx="6.4" ry="3.2"/>
</g>
<text transform="matrix(1 0 0 1 303.9512 421.6572)" class="st26 st27">Best Practices</text>
<text transform="matrix(1 0 0 1 90.0409 421.6572)" class="st26 st27">Design Review</text>
<text transform="matrix(1 0 0 1 99.5487 432.9072)" class="st26 st27">Checklists</text>
<g>
	<rect id="rect5870" x="21" y="220.2" class="st7" width="65.1" height="28.1"/>
	<text transform="matrix(1 0 0 1 27.6529 231.1579)" class="st26 st28">Cloud Design</text>
	<text transform="matrix(1 0 0 1 37.4761 241.9323)" class="st26 st28">Patterns</text>
</g>
<text transform="matrix(1 0 0 1 205.1826 33.7588)" class="st26 st27">Reference</text>
<text transform="matrix(1 0 0 1 199.6851 45.0088)" class="st26 st27">Architectures</text>
<g>
	<path class="st11" d="M225.8,61.6c-6.6-3.3-23.2-5.8-26.5-5.8v37.3c3.3,0,19.9,2.5,26.5,5.8c6.6-3.3,23.2-5.8,26.5-5.8V55.8
		C249,55.8,232.4,58.3,225.8,61.6z"/>
	<path class="st5" d="M225.8,59.1c-6.6-3.3-20.7-5.8-24-5.8v37.3c3.3,0,17.4,2.5,24,5.8l0,0c6.6-3.3,20.7-5.8,24-5.8V53.3
		C246.5,53.3,232.4,55.8,225.8,59.1z"/>
	<path class="st29" d="M225.8,56.6v37.3c6.6-3.3,18.2-5.8,21.6-5.8V50.8C244,50.8,232.4,53.3,225.8,56.6z"/>
	<path class="st6" d="M204.2,50.8v37.3c3.3,0,14.9,2.5,21.6,5.8V56.6C219.2,53.3,207.6,50.8,204.2,50.8z"/>
	<path class="st12" d="M222.5,62.4c-4.8-1.9-9.8-3.3-14.9-4.1v-1.7c5.1,0.8,10.1,2.2,14.9,4.1V62.4z"/>
	<path class="st12" d="M222.5,67.4c-4.8-1.9-9.8-3.3-14.9-4.1v-1.7c5.1,0.8,10.1,2.2,14.9,4.1V67.4z"/>
	<path class="st12" d="M222.5,72.3c-4.8-1.9-9.8-3.3-14.9-4.1v-1.7c5.1,0.8,10.1,2.2,14.9,4.1V72.3z"/>
	<path class="st12" d="M222.5,77.3c-4.8-1.9-9.8-3.3-14.9-4.1v-1.7c5.1,0.8,10.1,2.2,14.9,4.1V77.3z"/>
	<path class="st12" d="M222.5,82.3c-4.8-1.9-9.8-3.3-14.9-4.1v-1.7c5.1,0.8,10.1,2.2,14.9,4.1V82.3z"/>
	<path class="st12" d="M222.5,87.3c-4.8-1.9-9.8-3.3-14.9-4.1v-1.7c5.1,0.8,10.1,2.2,14.9,4.1V87.3z"/>
	<path class="st12" d="M229.1,62.4c4.8-1.9,9.8-3.3,14.9-4.1v-1.7c-5.1,0.8-10.1,2.2-14.9,4.1V62.4z"/>
	<path class="st12" d="M229.1,67.4c4.8-1.9,9.8-3.3,14.9-4.1v-1.7c-5.1,0.8-10.1,2.2-14.9,4.1V67.4z"/>
	<path class="st12" d="M229.1,72.3c4.8-1.9,9.8-3.3,14.9-4.1v-1.7c-5.1,0.8-10.1,2.2-14.9,4.1V72.3z"/>
	<path class="st12" d="M229.1,77.3c4.8-1.9,9.8-3.3,14.9-4.1v-1.7c-5.1,0.8-10.1,2.2-14.9,4.1V77.3z"/>
	<path class="st12" d="M229.1,82.3c4.8-1.9,9.8-3.3,14.9-4.1v-1.7c-5.1,0.8-10.1,2.2-14.9,4.1V82.3z"/>
	<path class="st12" d="M229.1,87.3c4.8-1.9,9.8-3.3,14.9-4.1v-1.7c-5.1,0.8-10.1,2.2-14.9,4.1V87.3z"/>
</g>
<g>
	<rect id="rect5887" x="367" y="219.6" class="st7" width="64.6" height="27.3"/>
	<text transform="matrix(1.0059 0 0 1 372.627 229.2002)" class="st30"><tspan x="0" y="0" class="st26 st27">Compute and</tspan><tspan x="-4.5" y="10.8" class="st26 st27">Storage options</tspan></text>
</g>
<path class="st2" d="M225.8,352.4"/>
<title  id="title3364">Sheet.63</title>
<g>
	<g id="shape62-3_1_">
		<title  id="title3359">Sheet.62</title>
		<path id="path3361_1_" inkscape:connector-curvature="0" class="st31" d="M126.6,360.7h-25.2v45.9h36.7v-34.4L126.6,360.7
			L126.6,360.7z"/>
	</g>
	<path id="path3366_1_" inkscape:connector-curvature="0" class="st7" d="M126.6,360.7h-25.2v45.9h36.7v-34.4L126.6,360.7
		L126.6,360.7z"/>
	<path id="path3371_1_" inkscape:connector-curvature="0" class="st32" d="M126.6,360.7h-25.2v45.9h36.7v-34.4L126.6,360.7
		L126.6,360.7z M135.8,404.2h-32V363h21.8v10.3h10.3V404.2L135.8,404.2z"/>
	<g id="shape69-17_1_">
		<title  id="title3394">_x3C_Slice_x3E__179_</title>
		<rect id="rect3396_1_" x="101.4" y="360.7" class="st3" width="36.7" height="45.8"/>
	</g>
	<g>
		<g id="rect3406_2_">
			<rect x="108.6" y="381.8" class="st7" width="4.1" height="4.2"/>
			<path class="st33" d="M108.6,381.8c1.3-0.1,2.6-0.2,4.1-0.2c0.1,0,0.2,0.1,0.2,0.2v0c0,0.7,0,1.4,0,2.1c0,0.3,0,0.7,0,1v1
				c0,0.2-0.1,0.3-0.3,0.3l0,0l-2,0c-0.7,0-1.3,0-2,0h0c-0.1,0-0.2-0.1-0.2-0.2c0-0.7,0-1.4,0.1-2.2L108.6,381.8z M108.6,381.8
				l0.1,2.2c0,0.7,0.1,1.4,0.1,2l-0.2-0.2c0.7,0,1.3,0,2,0l2,0l-0.3,0.3v-1c0-0.3,0-0.7,0-1c0-0.7,0-1.4,0-2.1l0.2,0.2
				C111.4,382,110,381.9,108.6,381.8z"/>
		</g>
		<g>
			<path class="st33" d="M115.2,383.4l19,0.9l-19,0.9c-0.5,0-1-0.4-1-0.9C114.2,383.9,114.6,383.4,115.2,383.4
				C115.1,383.4,115.2,383.4,115.2,383.4z"/>
		</g>
	</g>
	<path class="st34" d="M106.7,382.1c0,0,2.2,1.2,3.6,2.2c2.6-8.6,5.7-9.1,5.7-9.1"/>
	<g>
		<g id="rect3406_1_">
			<rect x="108.4" y="388.3" class="st7" width="4.1" height="4.2"/>
			<path class="st33" d="M108.4,388.3c1.3-0.1,2.6-0.2,4.1-0.2c0.1,0,0.2,0.1,0.2,0.2v0c0,0.7,0,1.4,0,2.1c0,0.3,0,0.7,0,1v1
				c0,0.2-0.1,0.3-0.3,0.3l0,0l-2,0c-0.7,0-1.3,0-2,0h0c-0.1,0-0.2-0.1-0.2-0.2c0-0.7,0-1.4,0.1-2.2L108.4,388.3z M108.4,388.3
				l0.1,2.2c0,0.7,0.1,1.4,0.1,2l-0.2-0.2c0.7,0,1.3,0,2,0l2,0l-0.3,0.3v-1c0-0.3,0-0.7,0-1c0-0.7,0-1.4,0-2.1l0.2,0.2
				C111.1,388.5,109.8,388.4,108.4,388.3z"/>
		</g>
		<g>
			<path class="st33" d="M114.9,390l19,0.9l-19,0.9c-0.5,0-1-0.4-1-0.9S114.3,390,114.9,390C114.9,389.9,114.9,389.9,114.9,390z"/>
		</g>
	</g>
	<g>
		<g id="rect3406_3_">
			<rect x="108.4" y="395.2" class="st7" width="4.1" height="4.2"/>
			<path class="st33" d="M108.4,395.2c1.3-0.1,2.6-0.2,4.1-0.2c0.1,0,0.2,0.1,0.2,0.2v0c0,0.7,0,1.4,0,2.1c0,0.3,0,0.7,0,1v1
				c0,0.2-0.1,0.3-0.3,0.3l0,0l-2,0c-0.7,0-1.3,0-2,0h0c-0.1,0-0.2-0.1-0.2-0.2c0-0.7,0-1.4,0.1-2.2L108.4,395.2z M108.4,395.2
				l0.1,2.2c0,0.7,0.1,1.4,0.1,2l-0.2-0.2c0.7,0,1.3,0,2,0l2,0l-0.3,0.3v-1c0-0.3,0-0.7,0-1c0-0.7,0-1.4,0-2.1l0.2,0.2
				C111.1,395.3,109.8,395.2,108.4,395.2z"/>
		</g>
		<g>
			<path class="st33" d="M114.9,396.8l19,0.9l-19,0.9c-0.5,0-1-0.4-1-0.9S114.3,396.8,114.9,396.8
				C114.9,396.8,114.9,396.8,114.9,396.8z"/>
		</g>
	</g>
</g>
</svg>
