<svg id="Layer_1" data-name="Layer 1" xmlns="http://www.w3.org/2000/svg" width="190.12" height="190.08" viewBox="0 0 190.12 190.08"><defs><style>.cls-1,.cls-14{fill:none;}.cls-1{stroke:#7cabbf;stroke-width:10px;}.cls-1,.cls-12,.cls-14{stroke-linecap:round;}.cls-2{fill:#7cabbf;}.cls-3{fill:#5da2d7;stroke:#5da2d7;}.cls-4{fill:#dedede;}.cls-12,.cls-5{fill:#eaeaea;}.cls-15,.cls-6{fill:#fff;}.cls-7{fill:#3899c5;}.cls-8{fill:#58b6da;}.cls-9{fill:#1881ce;}.cls-10{fill:#0271c5;}.cls-11{fill:#797979;}.cls-12{stroke:#9b9b9b;stroke-width:1.5px;}.cls-13{fill:#0078d7;}.cls-14{stroke:#d2e4f2;stroke-width:3.6px;}.cls-15{font-size:7.92px;font-family:SegoeUI-Semibold, Segoe UI;font-weight:700;}.cls-16{letter-spacing:-0.01em;}.cls-17{letter-spacing:-0.01em;}.cls-18{letter-spacing:-0.01em;}.cls-19{letter-spacing:-0.03em;}.cls-20,.cls-22{font-size:7.2px;font-family:SegoeUI, Segoe UI;}.cls-20{fill:#727272;}.cls-21{letter-spacing:-0.1em;}.cls-22{fill:#686868;}.cls-23{letter-spacing:-0.03em;}</style></defs><title>steps-1</title><g id="circle5592"><path class="cls-1" d="M353.36,200.75a74.48,74.48,0,0,1-2.23,51.76" transform="translate(-189.63 -117.95)"/><polygon class="cls-2" points="170.72 137.51 153.37 129.16 157.83 141.97 170.72 137.51"/></g><g id="circle5592-2" data-name="circle5592"><path class="cls-1" d="M326.94,282.46A72.62,72.62,0,0,1,306.27,293,74.4,74.4,0,0,1,277,296.36" transform="translate(-189.63 -117.95)"/><polygon class="cls-2" points="87.42 187.98 90.01 168.97 79.21 177.18 87.42 187.98"/></g><g id="circle5592-3" data-name="circle5592"><path class="cls-1" d="M241.41,284.19a73.66,73.66,0,0,1-16.34-16.41A72.73,72.73,0,0,1,212.82,241" transform="translate(-189.63 -117.95)"/><polygon class="cls-2" points="13.98 125.99 32.92 122.61 21.76 114.83 13.98 125.99"/></g><g id="circle5592-4" data-name="circle5592"><path class="cls-1" d="M282.3,150.64a72.81,72.81,0,0,1,22.89,3.67,73.61,73.61,0,0,1,25.63,14.47" transform="translate(-189.63 -117.95)"/><polygon class="cls-2" points="146.89 42.98 133.5 56.8 147.1 56.59 146.89 42.98"/></g><g id="circle5592-5" data-name="circle5592"><path class="cls-1" d="M213.76,201.61A74.3,74.3,0,0,1,224.27,181a75.29,75.29,0,0,1,14-14.61" transform="translate(-189.63 -117.95)"/><polygon class="cls-2" points="42.13 41.4 53.29 57.02 55.52 43.63 42.13 41.4"/></g><path id="path4809" class="cls-3" d="M271.28,232.5" transform="translate(-189.63 -117.95)"/><g id="g4320"><path id="path9" class="cls-4" d="M284.76,170A53.19,53.19,0,1,0,338,223.23,53,53,0,0,0,284.76,170Zm0,103.06a49.87,49.87,0,1,1,49.87-49.87A49.75,49.75,0,0,1,284.76,273.1Z" transform="translate(-189.63 -117.95)"/><circle id="circle11" class="cls-5" cx="95.14" cy="105.27" r="49.87"/><polygon id="polygon13" class="cls-4" points="95.14 58.73 86.2 89.48 86.2 89.48 92.23 92.81 95.14 94.26 95.14 91.97 95.14 58.73"/><polygon id="polygon15" class="cls-4" points="97.84 117.74 95.35 116.29 95.14 116.29 95.14 116.49 95.14 118.57 95.14 151.82 103.87 121.06 97.84 117.74"/><polygon id="polygon17" class="cls-6" points="95.14 58.73 103.87 89.48 103.87 89.48 97.84 92.81 95.14 94.26 95.14 91.97 95.14 58.73"/><polygon id="polygon19" class="cls-6" points="92.23 117.74 94.72 116.29 95.14 116.29 95.14 116.49 95.14 118.57 95.14 151.82 86.2 121.06 92.23 117.74"/><polygon id="polygon21" class="cls-4" points="48.59 105.27 79.14 114 79.14 114 82.46 107.97 84.13 105.27 81.84 105.27 48.59 105.27"/><polygon id="polygon23" class="cls-4" points="107.61 102.36 106.15 105.07 105.94 105.27 106.36 105.27 108.44 105.27 141.68 105.27 110.93 96.55 107.61 102.36"/><polygon id="polygon25" class="cls-6" points="48.59 105.27 79.14 96.55 79.14 96.55 82.46 102.36 84.13 105.27 81.84 105.27 48.59 105.27"/><polygon id="polygon27" class="cls-6" points="107.61 107.97 106.15 105.48 105.94 105.27 106.36 105.27 108.44 105.27 141.68 105.27 110.93 114 107.61 107.97"/><polygon id="polygon29" class="cls-4" points="84.13 105.27 84.13 105.27 95.14 105.27 70.41 80.55 70.41 80.55 84.13 105.27"/><polygon id="polygon31" class="cls-6" points="84.13 105.27 84.13 105.27 95.14 105.27 70.41 130 70.41 130 84.13 105.27"/><polygon id="polygon33" class="cls-4" points="95.14 116.29 95.14 116.08 95.14 105.27 70.41 130 70.41 130 95.14 116.29"/><polygon id="polygon35" class="cls-6" points="95.14 116.29 95.14 116.08 95.14 105.27 119.66 130 119.66 130 95.14 116.29"/><polygon id="polygon37" class="cls-4" points="105.94 105.27 105.94 105.27 95.14 105.27 119.66 130 119.66 130 105.94 105.27"/><polygon id="polygon39" class="cls-6" points="105.94 105.27 105.94 105.27 95.14 105.27 119.66 80.55 119.66 80.55 105.94 105.27"/><polygon id="polygon41" class="cls-4" points="95.14 94.26 95.14 94.47 95.14 105.27 119.66 80.55 119.66 80.55 95.14 94.26"/><polygon id="polygon43" class="cls-6" points="95.14 94.26 95.14 94.47 95.14 105.27 70.41 80.55 70.41 80.55 95.14 94.26"/><polygon id="polygon45" class="cls-7" points="62.31 138.31 101.79 111.92 128.18 72.44 88.49 98.62 88.49 98.62 62.31 138.31"/><polygon id="polygon47" class="cls-8" points="62.31 138.31 101.79 111.92 95.14 105.27 62.31 138.31"/><polygon id="polygon49" class="cls-9" points="128.18 72.44 88.49 98.62 95.14 105.27 128.18 72.44"/><polygon id="polygon51" class="cls-10" points="128.18 72.44 101.79 111.92 94.93 105.07 128.18 72.44"/><circle id="circle53" class="cls-11" cx="95.14" cy="105.27" r="3.32"/></g><circle id="circle5309" class="cls-12" cx="353.72" cy="200.75" r="25.27" transform="translate(-234.35 1.17) rotate(-18)"/><path id="path5185" class="cls-3" d="M279.42,166.48" transform="translate(-189.63 -117.95)"/><circle id="path4715" class="cls-13" cx="95.05" cy="32.69" r="32.69"/><circle id="circle4731" class="cls-12" cx="215.65" cy="200.78" r="25.27" transform="translate(-231.56 225.89) rotate(-72)"/><circle id="circle4743" class="cls-12" cx="243.71" cy="282.01" r="25.27" transform="translate(-317.32 195.45) rotate(-54)"/><circle id="circle4749" class="cls-12" cx="325.95" cy="280.81" r="25.27" transform="matrix(0.81, -0.59, 0.59, 0.81, -292.43, 127.27)"/><path class="cls-14" d="M284.68,298.37" transform="translate(-189.63 -117.95)"/><text class="cls-15" transform="translate(73.11 29.67)">A<tspan class="cls-16" x="5.32" y="0">r</tspan><tspan x="8.18" y="0">chi</tspan><tspan class="cls-17" x="18.58" y="0">t</tspan><tspan x="21.4" y="0">ectu</tspan><tspan class="cls-18" x="36.81" y="0">r</tspan><tspan x="39.67" y="0">e</tspan><tspan class="cls-19" x="11.61" y="9.5">S</tspan><tspan x="15.69" y="9.5">tyles</tspan></text><text class="cls-20" transform="translate(145.99 80.06)"><tspan class="cls-21">T</tspan><tspan x="3.07" y="0">echnology</tspan><tspan x="5.79" y="8.64">Choices</tspan></text><text class="cls-22" transform="translate(15.06 80.09)">Design<tspan class="cls-23" x="-1.9" y="8.64">P</tspan><tspan x="1.89" y="8.64">atterns</tspan></text><text class="cls-20" transform="translate(42.79 161.31)">Quality<tspan x="2.05" y="8.64">Pillars</tspan></text><text class="cls-20" transform="translate(125.36 160.12)">Design<tspan x="-4.15" y="8.64">Principles</tspan></text></svg>