<svg id="Layer_1" data-name="Layer 1" xmlns="http://www.w3.org/2000/svg" width="800" height="325.43" viewBox="0 0 800 325.43"><defs><style>.cls-1,.cls-3{fill:none;stroke:#afafaf;stroke-width:6px;}.cls-1{stroke-miterlimit:10;}.cls-2{fill:#afafaf;}.cls-3{stroke-linejoin:bevel;}.cls-4{fill:#3fa0ec;}.cls-5,.cls-8{font-size:18px;}.cls-12,.cls-14,.cls-5,.cls-9{fill:#fff;}.cls-12,.cls-14,.cls-5,.cls-8,.cls-9{font-family:SegoeUI, Segoe UI;}.cls-6{letter-spacing:-0.04em;}.cls-7{fill:#8fb6cc;}.cls-8{fill:#213d47;}.cls-9{font-size:14px;}.cls-10{letter-spacing:-0.03em;}.cls-11{letter-spacing:-0.03em;}.cls-12{font-size:18.04px;}.cls-13{letter-spacing:-0.04em;}.cls-14{font-size:17.97px;}</style></defs><title>web-queue-worker</title><line class="cls-1" x1="331.76" y1="293.37" x2="703" y2="294.35"/><polygon class="cls-2" points="333.93 300.86 321 293.35 333.97 285.9 333.93 300.86"/><line class="cls-1" x1="564" y1="217.93" x2="689.24" y2="217.93"/><polygon class="cls-2" points="687.05 225.41 700 217.93 687.05 210.45 687.05 225.41"/><line class="cls-1" x1="331.76" y1="93.89" x2="599" y2="92.93"/><polygon class="cls-2" points="333.98 101.36 321 93.92 333.93 86.4 333.98 101.36"/><line class="cls-1" x1="321" y1="66.93" x2="689.24" y2="66.93"/><polygon class="cls-2" points="687.05 74.41 700 66.92 687.05 59.45 687.05 74.41"/><line class="cls-3" x1="321" y1="22.96" x2="691.24" y2="25.88"/><polygon class="cls-2" points="688.99 33.34 702 25.96 689.11 18.38 688.99 33.34"/><line class="cls-1" x1="188" y1="65.61" x2="211.24" y2="65.34"/><polygon class="cls-2" points="209.13 72.85 222 65.22 208.96 57.89 209.13 72.85"/><rect class="cls-4" x="489.55" y="104.93" width="76" height="145.04" rx="8" ry="8"/><text class="cls-5" transform="translate(498.78 174.92)"><tspan class="cls-6">W</tspan><tspan x="16.11" y="0">orker</tspan></text><rect class="cls-4" x="598.27" y="78.93" width="69" height="86" rx="8" ry="8"/><text class="cls-5" transform="translate(608.66 125.88)">Cache</text><path class="cls-7" d="M68,156.79a4,4,0,0,1,4,4v306a4,4,0,0,1-4,4H8a4,4,0,0,1-4-4v-306a4,4,0,0,1,4-4H68m0-4H8a8,8,0,0,0-8,8v306a8,8,0,0,0,8,8H68a8,8,0,0,0,8-8v-306a8,8,0,0,0-8-8Z" transform="translate(0 -151.07)"/><text class="cls-8" transform="translate(15.22 160.85)">Client</text><line class="cls-1" x1="74" y1="65.66" x2="98.24" y2="65.32"/><polygon class="cls-2" points="96.16 72.83 109 65.16 95.94 57.87 96.16 72.83"/><line class="cls-1" x1="321" y1="170.97" x2="343.24" y2="170.94"/><polygon class="cls-2" points="341.06 178.42 354 170.93 341.04 163.46 341.06 178.42"/><rect class="cls-4" x="700" width="100" height="48.93" rx="8" ry="8"/><text class="cls-9" transform="translate(726.19 19.14)"><tspan class="cls-10">R</tspan><tspan x="7.96" y="0">emote</tspan><tspan x="2.05" y="16.8">Service</tspan></text><rect class="cls-4" x="700" y="265.43" width="100" height="60" rx="8" ry="8"/><text class="cls-9" transform="translate(733.27 290.11)"><tspan class="cls-11">S</tspan><tspan x="6.99" y="0">tatic</tspan><tspan x="-8.04" y="16.8">Content</tspan></text><rect class="cls-4" x="700" y="55.18" width="100" height="204" rx="8" ry="8"/><text class="cls-5" transform="translate(713.09 168.38)">Database</text><rect class="cls-4" x="354.18" y="140.97" width="102.64" height="60" rx="8" ry="8"/><text class="cls-5" transform="translate(379.11 174.92)">Queue</text><rect class="cls-4" x="221.45" y="1.59" width="100" height="257.34" rx="8" ry="8"/><text class="cls-12" transform="translate(232.35 129.72) scale(0.98 1)"><tspan class="cls-13">W</tspan><tspan x="16.14" y="0">eb front</tspan><tspan x="24.83" y="21.65">end</tspan></text><rect class="cls-4" x="221.45" y="263.85" width="100" height="60" rx="8" ry="8"/><text class="cls-14" transform="translate(253.35 297.79) scale(0.97 1)">CDN</text><rect class="cls-4" x="108.73" y="33.59" width="80" height="63.66" rx="8" ry="8"/><text class="cls-9" transform="translate(125.29 60.09)">Identity<tspan x="-2.29" y="16.8">Provider</tspan></text><line class="cls-1" x1="576.76" y1="134.93" x2="598" y2="134.93"/><polygon class="cls-2" points="578.95 142.41 566 134.93 578.95 127.45 578.95 142.41"/><line class="cls-1" x1="457" y1="170.93" x2="479.24" y2="170.96"/><polygon class="cls-2" points="477.04 178.43 490 170.97 477.06 163.47 477.04 178.43"/><line class="cls-1" x1="86.76" y1="293.85" x2="221" y2="293.85"/><polygon class="cls-2" points="88.95 301.33 76 293.85 88.95 286.37 88.95 301.33"/><line class="cls-1" x1="677.76" y1="134.93" x2="700" y2="134.93"/><polygon class="cls-2" points="679.95 142.41 667 134.93 679.95 127.45 679.95 142.41"/></svg>